PathFileType	4	(X/Y/Z)	D:\TRACE\v60_Jaco2_6-2-23\JustBodyDRS_Motion3_10-v60.trc
DataRate	CameraRate	NumFrames	NumMarkers	Units	OrigDataRate	OrigDataStartFrame	OrigNumFrames
100.00	100.00	      41	9	mm	100.00	2626	      7000
Frame#	Time	front left toe			Front right toe			aft left toe			aft right toe			Arm			FL body			FR body			AL Body			AR Body			
		X1	Y1	Z1	X2	Y2	Z2	X3	Y3	Z3	X4	Y4	Z4	X5	Y5	Z5	X6	Y6	Z6	X7	Y7	Z7	X8	Y8	Z8	X9	Y9	Z9	

2626	26.250	-197.22601	35.26913	-229.74655	176.63133	116.92059	-239.21758	-187.80264	61.76865	391.54550	193.21863	-13.27711	381.13333	7.28799	1198.98596	-238.04160	-97.00265	567.00781	-397.39990	61.13450	567.16248	-400.72559	-67.15498	498.02216	544.46631	84.69134	489.23141	539.43921	
2627	26.260	-197.18597	34.92006	-229.82884	175.05190	107.67567	-239.17218	-188.33577	52.42905	392.32593	193.16341	-12.84948	381.03287	6.21389	1198.94385	-238.02238	-97.67062	566.93231	-397.07837	61.09935	567.03058	-401.10739	-67.42550	497.75946	544.70624	84.66624	489.00562	539.51483	
2628	26.270	-197.21439	34.66012	-229.86636	173.25237	98.31696	-239.24579	-188.49829	42.86811	392.89743	193.03751	-12.66033	380.94699	5.09225	1199.04065	-238.05139	-98.52706	566.92206	-396.94312	59.76554	566.86810	-400.69162	-67.61472	497.61377	544.84833	85.58642	488.79449	539.61292	
2629	26.280	-197.24310	34.41165	-229.98759	171.76556	89.72516	-238.50681	-188.79990	34.83843	392.65985	192.91316	-12.49841	380.72913	3.89983	1198.94360	-237.83075	-99.23321	566.49188	-396.73767	58.87856	566.71967	-400.82846	-67.71720	497.52731	544.91156	85.38424	488.65494	539.58618	
2630	26.290	-197.22102	33.90202	-230.02409	171.55672	81.92403	-238.27463	-189.91272	26.60661	392.50342	192.80544	-12.31784	380.62448	2.65912	1198.81140	-237.97096	-100.27613	566.31934	-396.55609	57.74112	566.55096	-400.92831	-67.71757	497.39981	544.94812	85.30483	488.58392	539.53088	
2631	26.300	-197.26878	33.65194	-230.21715	170.60489	74.20744	-238.40553	-190.67174	19.43134	392.96371	192.96306	-12.00961	380.46182	1.52966	1198.47327	-238.00182	-101.16925	566.18793	-396.49173	57.62010	566.46875	-401.19797	-67.72957	497.22702	545.04382	85.26083	488.47089	539.53748	
2632	26.310	-197.34073	33.15783	-230.29062	170.74306	68.01884	-237.69408	-191.54163	12.78010	393.34854	193.13245	-11.69628	380.30194	0.35169	1198.19739	-238.01149	-102.05695	565.84113	-396.35004	55.94158	566.36395	-401.03006	-67.72164	496.93646	544.86890	85.09151	488.34973	539.46344	
2633	26.320	-197.35544	32.85083	-230.38988	169.89081	61.52213	-237.95023	-191.59361	6.42705	393.51477	193.44994	-11.24895	380.14725	-0.51755	1197.89490	-237.92229	-103.13632	565.58710	-396.22919	54.95895	566.11823	-401.00287	-67.73528	496.91296	544.94128	84.48980	488.37018	539.43494	
2634	26.330	-197.29604	32.57181	-230.57852	170.45473	55.74284	-237.43875	-191.41147	-0.52701	393.52689	193.54388	-10.73798	380.18271	-1.42221	1197.78748	-237.98251	-103.95308	565.20575	-396.29388	54.07179	565.92297	-400.90671	-67.83885	496.95297	545.00800	84.20692	488.53656	539.48334	
2635	26.340	-197.14497	32.32794	-230.72963	169.10623	48.69379	-238.01192	-192.16252	-6.15974	393.67273	193.80165	-10.37404	380.21695	-3.30104	1197.86646	-238.09474	-104.79958	565.19904	-396.06381	53.93946	565.96100	-401.20465	-68.22575	496.96326	545.09662	83.95478	488.81412	539.53876	
2636	26.350	-196.96596	32.04699	-230.86430	168.54886	41.46445	-237.63640	-192.12175	-8.00289	393.13528	194.01857	-10.02396	379.99332	-4.27795	1197.78259	-237.85178	-105.58284	564.89758	-396.06427	52.82432	565.95996	-401.08551	-68.77817	497.49295	545.16687	83.00121	489.39941	539.43237	
2637	26.360	-196.87509	31.78722	-230.85539	167.88278	38.66042	-239.00543	-192.77643	-7.20752	392.25433	193.99481	-9.68270	379.88974	-6.48153	1198.01428	-238.71396	-106.68388	564.59479	-395.96033	51.81612	565.51544	-401.30725	-68.98849	498.80011	545.53125	83.58494	490.69318	539.48920	
2638	26.370	-196.75871	31.54350	-230.75761	168.96451	35.21336	-238.62102	-192.41162	-6.50121	392.60461	194.03508	-8.42174	379.92438	-7.36894	1198.05554	-239.47867	-107.85697	564.18597	-395.89526	51.01674	565.26636	-401.23001	-69.41383	500.40344	545.78076	83.54743	492.30246	539.62262	
2639	26.380	-196.58095	31.41324	-230.69846	170.50249	35.10870	-239.72269	-191.57780	-7.08961	392.93155	194.10069	-7.98382	379.78235	-8.24311	1198.47314	-241.04362	-108.92419	564.68811	-395.87375	49.68243	566.40417	-401.34891	-69.51144	501.11319	546.08307	83.21318	493.56329	539.63947	
2640	26.390	-195.44835	33.25541	-231.67123	170.34964	34.59288	-238.96977	-191.38362	-7.29541	392.79340	193.78078	-5.92217	379.27924	-9.72768	1199.05823	-242.40984	-109.91369	566.00470	-395.67883	48.70248	567.85248	-401.24301	-69.65343	501.85602	545.99182	83.31835	494.02866	539.48395	
2641	26.400	-191.49947	38.33817	-230.36441	169.46658	34.71471	-239.94485	-191.37224	-7.29955	392.47028	191.06728	-2.32354	381.51419	-12.43042	1200.01404	-242.78763	-110.69065	567.49072	-395.76431	47.68866	569.35864	-401.52014	-69.34957	501.81021	545.29358	83.35767	493.94110	538.78094	
2642	26.410	-188.31165	43.14201	-226.30324	169.29210	34.32974	-240.53529	-191.21252	-6.98508	392.14246	186.99678	3.40552	383.92358	-14.63492	1201.71765	-241.57968	-111.83698	568.56104	-396.47330	46.34212	570.50989	-401.92883	-69.41454	501.94342	544.99951	83.27497	493.98883	538.31366	
2643	26.420	-188.31755	54.00377	-226.56578	169.91411	33.96191	-240.73471	-191.03275	-6.74741	391.70105	182.74681	13.62840	384.06400	-17.03045	1203.43481	-240.13188	-112.30733	568.40479	-396.67468	45.75293	570.73914	-402.51733	-69.58440	502.09882	544.46582	82.76147	494.91681	537.74799	
2644	26.430	-189.41451	65.86571	-227.55841	170.38425	33.48650	-240.86676	-191.05009	-6.12715	391.87598	179.51904	26.46464	383.08124	-18.71620	1204.14087	-239.15010	-112.85540	568.22076	-397.11639	45.54540	570.85565	-403.04666	-70.42914	502.32767	543.68304	82.10114	495.48981	537.50641	
2645	26.440	-191.52925	78.65720	-228.66362	170.54573	33.21131	-240.73387	-191.00366	-5.74680	391.95898	180.21938	39.90444	381.45804	-20.59949	1203.69714	-239.73714	-113.57645	568.41663	-397.48099	44.97159	570.91077	-403.30334	-71.02296	502.65121	543.66260	81.77827	495.72574	537.15045	
2646	26.450	-194.36023	91.91982	-230.42844	170.43159	32.94519	-241.04401	-191.01646	-5.62991	391.70416	183.23741	54.09318	380.22552	-21.02999	1202.77808	-241.02003	-113.90032	568.37280	-397.83011	44.67087	570.96021	-403.53546	-71.60213	502.55658	543.52747	81.13559	495.53226	536.89392	
2647	26.460	-197.42331	105.18557	-231.01558	170.65341	32.46151	-241.21019	-190.93083	-5.21984	391.49176	184.25610	67.65953	378.76532	-21.06125	1202.03955	-242.44023	-113.99885	567.78040	-398.05243	44.36166	570.72607	-403.80923	-72.69852	502.29416	543.41400	80.18214	495.73260	536.76178	
2648	26.470	-200.31802	118.37182	-231.18263	170.76349	31.91235	-241.47038	-190.81784	-4.80369	391.44092	184.85233	80.90657	377.97745	-20.99132	1201.73389	-243.50655	-114.28582	566.73926	-398.37030	43.79069	570.13470	-403.84494	-73.53767	502.51953	543.15027	79.28999	496.19290	536.51825	
2649	26.480	-203.24614	131.31023	-231.33992	170.86952	31.54930	-241.97771	-190.68570	-4.47983	391.41260	185.21063	94.04884	377.93509	-21.34995	1201.17932	-244.39738	-114.65116	565.82440	-398.80591	43.28802	568.98492	-404.10883	-74.38440	503.23514	542.94586	78.79950	496.78586	536.25903	
2650	26.490	-205.80101	142.65309	-231.31026	171.23097	31.28328	-242.02124	-190.27296	-4.63458	391.40048	182.43068	105.96359	377.83807	-22.09468	1200.60046	-245.16129	-115.18627	564.86237	-399.42700	43.42247	568.09460	-404.86484	-74.88272	504.11340	542.67993	77.62301	497.85773	536.02002	
2651	26.500	-208.60211	152.54449	-231.68297	171.54649	30.89449	-242.12180	-189.65645	-3.77328	391.03531	179.66194	116.88548	377.48199	-23.39965	1200.05310	-246.69431	-115.54425	563.90967	-399.88287	42.54979	567.00317	-405.01627	-75.49189	505.17178	542.45245	77.16769	498.70090	535.94263	
2652	26.510	-211.36098	159.82309	-231.83804	171.07219	30.37119	-242.28951	-189.11417	-3.49570	390.84457	178.27794	125.82410	377.94348	-24.53140	1199.38000	-248.61046	-115.60556	562.81805	-400.12054	43.18258	565.81329	-405.34668	-76.76683	506.28455	542.03003	76.64982	499.67645	535.83228	
2653	26.520	-214.02995	165.07863	-231.58328	171.18768	29.74172	-242.59708	-189.25150	-2.94644	390.65179	176.87308	130.94289	378.11963	-25.00858	1198.43604	-251.10451	-115.68076	561.51111	-400.34091	42.82228	564.76996	-405.73584	-77.23129	506.85971	541.72290	75.91312	500.50180	535.72620	
2654	26.530	-216.82503	167.30392	-231.20840	171.41611	29.28508	-242.87033	-189.08582	-2.61803	390.44339	175.78224	132.74547	377.76517	-25.41862	1197.40698	-253.36346	-115.74046	560.25623	-400.73978	42.28771	563.54169	-405.86499	-78.16222	507.49771	541.57983	73.79835	501.39218	535.59784	
2655	26.540	-219.69998	165.72478	-230.67393	172.51410	29.16388	-242.73959	-188.98416	-2.26809	390.89459	175.21777	131.60561	378.08603	-25.16412	1196.36072	-255.40839	-115.92467	559.29834	-401.35379	42.64125	562.52551	-406.46313	-79.19497	508.69861	541.03198	74.23941	502.53439	535.22717	
2656	26.550	-222.00475	161.50542	-230.29453	171.79765	28.41000	-243.25456	-188.65074	-1.31364	390.11591	173.97679	128.31909	378.13766	-25.23385	1195.79468	-257.36203	-116.24342	558.43402	-402.25995	42.07436	561.46423	-406.60785	-79.93456	510.06918	540.47345	73.30949	503.68268	534.90686	
2657	26.560	-224.13358	156.21159	-230.54060	173.31128	28.52939	-242.97006	-188.52110	-0.78951	389.90082	172.02888	124.18012	378.08606	-24.82202	1195.08801	-258.69391	-116.35970	557.32849	-402.84921	41.60649	560.68488	-407.35541	-80.97224	511.19254	540.01923	72.05004	504.81412	534.47687	
2658	26.570	-225.58180	150.08278	-231.13072	172.99805	27.94682	-243.20085	-188.11066	-1.14050	390.10403	169.95140	119.11789	378.06973	-25.06325	1194.68018	-260.38281	-116.58174	556.48572	-403.56808	41.24761	559.72705	-407.97214	-81.98256	511.72604	539.13324	69.93147	505.61621	533.94110	
2659	26.580	-226.70459	143.27248	-232.21144	173.18303	27.36051	-243.63319	-187.54440	-0.48856	389.57181	167.06453	112.46845	377.50702	-25.11498	1193.97864	-261.97250	-116.81890	555.76807	-404.23206	41.71357	559.02985	-408.89490	-82.42402	512.50519	538.51843	70.25537	506.09396	533.49438	
2660	26.590	-228.73303	136.21024	-233.62508	174.47340	27.44688	-243.53859	-187.05881	-0.10972	389.21848	164.44402	105.21932	376.34262	-25.90583	1193.60608	-263.92242	-116.92669	555.05225	-405.12714	41.77557	558.34662	-409.54816	-83.77094	513.17450	537.91357	69.63532	506.95966	532.92798	
2661	26.600	-231.52567	128.90675	-236.07307	173.76140	26.71453	-244.16096	-187.23607	0.60689	388.92792	162.71176	96.62555	374.88309	-26.60332	1192.97534	-265.64420	-116.74165	554.32733	-405.94492	41.13956	557.66718	-410.25641	-84.38264	513.95691	536.95947	67.37300	507.55243	532.09827	
2662	26.610	-234.04045	121.17106	-238.46790	174.33043	26.47915	-244.19722	-187.02408	1.04214	388.59464	158.82451	86.41251	372.82666	-27.42526	1192.62866	-267.46082	-116.78398	553.93829	-407.06256	41.06590	556.95215	-410.99893	-85.76912	514.46655	535.79401	67.77664	508.16589	531.48749	
2663	26.620	-236.53500	112.99645	-241.00302	175.48854	26.23021	-244.15384	-186.80885	1.23058	388.69656	155.44565	76.36868	371.05902	-27.57427	1192.36987	-269.38275	-116.98248	553.09509	-408.18402	41.48497	556.26526	-412.01428	-86.48026	515.12604	535.23846	66.51308	508.62955	530.38641	
2664	26.630	-238.35637	104.33270	-243.34981	174.94154	25.53127	-244.63745	-186.09792	1.45035	388.35196	152.63998	66.55422	369.16440	-27.46542	1191.84497	-271.01968	-117.18511	552.40222	-409.26654	41.34296	555.50061	-413.18848	-87.62030	515.56921	533.86566	65.72320	509.04230	529.71088	
2665	26.640	-239.89145	95.18016	-245.29541	176.14423	25.49900	-244.52257	-186.15559	2.14001	388.49536	150.24500	57.36843	367.72153	-26.89181	1191.29736	-272.96475	-117.52748	551.98199	-410.56851	40.68266	554.78534	-413.90094	-88.82091	516.25165	532.68884	64.81918	509.78046	528.52216	
2666	26.650	-241.26587	86.16711	-246.84282	175.60315	24.94013	-244.97197	-185.88902	2.68060	387.72308	147.92891	47.86154	365.97626	-26.45751	1190.65344	-274.93280	-117.74924	551.09558	-411.45996	40.08305	553.99799	-415.17447	-89.62543	516.93512	531.73596	63.59895	509.95523	527.59265	
